<svg width="48" height="48" viewBox="0 0 48 48" fill="none" xmlns="http://www.w3.org/2000/svg">
  <rect width="48" height="48" rx="8" fill="#FFFFFF"/>
  <path d="M24 20.2727C25.6909 20.2727 27.2182 20.8364 28.4 21.8182L32.1455 18.0727C29.8909 15.9636 27.0909 14.7273 24 14.7273C19.4182 14.7273 15.4909 17.3818 13.6727 21.2364L17.8909 24.5091C18.7636 22.0727 21.1636 20.2727 24 20.2727Z" fill="#EA4335"/>
  <path d="M33.2727 24.2182C33.2727 23.3455 33.2 22.5455 33.0545 21.7818H24V26.9818H29.2364C28.9818 28.4364 28.1091 29.6727 26.8 30.5091L30.9455 33.7091C33.0909 31.7091 34.2909 28.8 34.2909 25.3818C34.2909 24.9818 33.2727 24.2182 33.2727 24.2182Z" fill="#4285F4"/>
  <path d="M17.8909 24.5091L13.6727 21.2364C13.2727 22.1091 13.0545 23.0545 13.0545 24C13.0545 24.9455 13.2727 25.8909 13.6727 26.7636L17.8909 23.4909C17.8182 23.3455 17.8182 23.2 17.8182 23.0545C17.8182 23.6182 17.8182 24.0182 17.8909 24.5091Z" fill="#FBBC05"/>
  <path d="M24 34.1818C27.0909 34.1818 29.8182 33.0545 31.8182 31.0545L27.6727 27.8545C26.8 28.4909 25.4909 28.8909 24 28.8909C21.1636 28.8909 18.7636 27.0909 17.8909 24.6545L13.6727 27.9273C15.4909 31.7818 19.4182 34.1818 24 34.1818Z" fill="#34A853"/>
</svg>
