<svg width="48" height="48" viewBox="0 0 48 48" fill="none" xmlns="http://www.w3.org/2000/svg">
  <rect width="48" height="48" rx="8" fill="#10A37F"/>
  <path d="M34.5 24C34.5 24.5967 34.4397 25.1817 34.3243 25.7486L37.5526 28.1609C37.8401 27.4796 38.0503 26.7541 38.1731 25.9967C38.2959 25.2393 38.3333 24.4633 38.2822 23.6945C38.231 22.9257 38.0921 22.1756 37.8708 21.4621C37.6495 20.7486 37.3489 20.0808 36.9787 19.4771C36.6085 18.8734 36.1731 18.3401 35.6851 17.8922C35.1971 17.4442 34.6624 17.0852 34.0943 16.8235C33.5262 16.5619 32.9304 16.4007 32.3219 16.3433C31.7134 16.2858 31.1022 16.3326 30.5115 16.4819L31.9235 20.0729C32.5925 20.4451 33.1639 20.9651 33.5891 21.5893C34.0143 22.2135 34.2799 22.924 34.3649 23.6674C34.45 24.4108 34.3522 25.1644 34.0807 25.8599C33.8092 26.5554 33.3726 27.1724 32.8094 27.6571L34.3243 25.7486C34.4397 25.1817 34.5 24.5967 34.5 24Z" fill="white"/>
  <path d="M24 34.5C23.4033 34.5 22.8183 34.4397 22.2514 34.3243L19.8391 37.5526C20.5204 37.8401 21.2459 38.0503 22.0033 38.1731C22.7607 38.2959 23.5367 38.3333 24.3055 38.2822C25.0743 38.231 25.8244 38.0921 26.5379 37.8708C27.2514 37.6495 27.9192 37.3489 28.5229 36.9787C29.1266 36.6085 29.6599 36.1731 30.1078 35.6851C30.5558 35.1971 30.9148 34.6624 31.1765 34.0943C31.4381 33.5262 31.5993 32.9304 31.6567 32.3219C31.7142 31.7134 31.6674 31.1022 31.5181 30.5115L27.9271 31.9235C27.5549 32.5925 27.0349 33.1639 26.4107 33.5891C25.7865 34.0143 25.076 34.2799 24.3326 34.3649C23.5892 34.45 22.8356 34.3522 22.1401 34.0807C21.4446 33.8092 20.8276 33.3726 20.3429 32.8094L22.2514 34.3243C22.8183 34.4397 23.4033 34.5 24 34.5Z" fill="white"/>
  <path d="M13.5 24C13.5 23.4033 13.5603 22.8183 13.6757 22.2514L10.4474 19.8391C10.1599 20.5204 9.94971 21.2459 9.82691 22.0033C9.70411 22.7607 9.66674 23.5367 9.71784 24.3055C9.76894 25.0743 9.90793 25.8244 10.1292 26.5379C10.3505 27.2514 10.6511 27.9192 11.0213 28.5229C11.3915 29.1266 11.8269 29.6599 12.3149 30.1078C12.8029 30.5558 13.3376 30.9148 13.9057 31.1765C14.4738 31.4381 15.0696 31.5993 15.6781 31.6567C16.2866 31.7142 16.8978 31.6674 17.4885 31.5181L16.0765 27.9271C15.4075 27.5549 14.8361 27.0349 14.4109 26.4107C13.9857 25.7865 13.7201 25.076 13.6351 24.3326C13.55 23.5892 13.6478 22.8356 13.9193 22.1401C14.1908 21.4446 14.6274 20.8276 15.1906 20.3429L13.6757 22.2514C13.5603 22.8183 13.5 23.4033 13.5 24Z" fill="white"/>
  <path d="M24 13.5C24.5967 13.5 25.1817 13.5603 25.7486 13.6757L28.1609 10.4474C27.4796 10.1599 26.7541 9.94971 25.9967 9.82691C25.2393 9.70411 24.4633 9.66674 23.6945 9.71784C22.9257 9.76894 22.1756 9.90793 21.4621 10.1292C20.7486 10.3505 20.0808 10.6511 19.4771 11.0213C18.8734 11.3915 18.3401 11.8269 17.8922 12.3149C17.4442 12.8029 17.0852 13.3376 16.8235 13.9057C16.5619 14.4738 16.4007 15.0696 16.3433 15.6781C16.2858 16.2866 16.3326 16.8978 16.4819 17.4885L20.0729 16.0765C20.4451 15.4075 20.9651 14.8361 21.5893 14.4109C22.2135 13.9857 22.924 13.7201 23.6674 13.6351C24.4108 13.55 25.1644 13.6478 25.8599 13.9193C26.5554 14.1908 27.1724 14.6274 27.6571 15.1906L25.7486 13.6757C25.1817 13.5603 24.5967 13.5 24 13.5Z" fill="white"/>
</svg>
